<svg width="156" height="45" viewBox="0 0 156 45" fill="none" xmlns="http://www.w3.org/2000/svg">
<path d="M154.863 39.7994C154.863 42.1969 152.881 44.1389 150.429 44.1389H5.30749C2.85659 44.1389 0.867188 42.1969 0.867188 39.7994V5.19396C0.867188 2.79765 2.85659 0.848877 5.30749 0.848877H150.428C152.881 0.848877 154.862 2.79765 154.862 5.19396L154.863 39.7994Z" fill="black"/>
<path d="M149.959 0.901212C152.629 0.901212 154.802 3.01984 154.802 5.62351V39.3642C154.802 41.9679 152.629 44.0865 149.959 44.0865H5.76764C3.09722 44.0865 0.924265 41.9679 0.924265 39.3642V5.62351C0.924265 3.01984 3.09722 0.901212 5.76764 0.901212H149.959ZM149.959 5.29574e-05H5.76764C2.59688 5.29574e-05 0 2.53201 0 5.62351V39.3642C0 42.4557 2.59688 44.9877 5.76764 44.9877H149.959C153.13 44.9877 155.726 42.4557 155.726 39.3642V5.62351C155.726 2.53201 153.13 5.29574e-05 149.959 5.29574e-05Z" fill="#A6A6A6"/>
<path d="M34.7477 22.2507C34.7142 18.6259 37.7918 16.8623 37.9326 16.7802C36.1896 14.3026 33.488 13.964 32.5387 13.937C30.2697 13.7042 28.0688 15.2608 26.9129 15.2608C25.734 15.2608 23.9541 13.9595 22.0358 13.9978C19.5672 14.0349 17.2579 15.4284 15.9913 17.5923C13.3774 22.0044 15.3269 28.4883 17.8312 32.0547C19.0839 33.8013 20.5477 35.7515 22.4638 35.6829C24.3382 35.6076 25.0384 34.5177 27.3005 34.5177C29.5418 34.5177 30.1993 35.6829 32.1534 35.6391C34.1652 35.6076 35.4317 33.8845 36.6406 32.1221C38.0883 30.1202 38.6697 28.1486 38.6928 28.0474C38.6455 28.0317 34.7858 26.5954 34.7477 22.2507Z" fill="white"/>
<path d="M31.0564 11.5909C32.0646 10.3616 32.7544 8.68922 32.5629 6.99207C31.1037 7.05505 29.2788 7.97617 28.2279 9.17846C27.2982 10.2379 26.4677 11.9744 26.6822 13.6075C28.3214 13.7267 30.0044 12.8011 31.0564 11.5909Z" fill="white"/>
<path d="M61.8818 35.4322H59.2621L57.8271 31.0358H52.8393L51.4723 35.4322H48.9219L53.8636 20.4648H56.9158L61.8818 35.4322ZM57.3945 29.1913L56.0968 25.283C55.9596 24.8838 55.7023 23.9435 55.3228 22.4634H55.2767C55.1255 23.1 54.8822 24.0402 54.5476 25.283L53.273 29.1913H57.3945Z" fill="white"/>
<path d="M74.5894 29.9033C74.5894 31.7388 74.0807 33.1897 73.0633 34.2548C72.152 35.2029 71.0204 35.6764 69.6696 35.6764C68.2116 35.6764 67.1642 35.1658 66.5263 34.1445H66.4801V39.8299H64.0208V28.1927C64.0208 27.0387 63.9897 25.8544 63.9297 24.6398H66.0926L66.2298 26.3504H66.276C67.0961 25.0615 68.3408 24.4182 70.0111 24.4182C71.3169 24.4182 72.407 24.9209 73.279 25.9275C74.1534 26.9353 74.5894 28.2602 74.5894 29.9033ZM72.084 29.9911C72.084 28.9406 71.8417 28.0746 71.355 27.393C70.8232 26.6822 70.1091 26.3268 69.214 26.3268C68.6072 26.3268 68.0559 26.5248 67.5633 26.915C67.0696 27.3087 66.7466 27.8227 66.5955 28.4592C66.5194 28.7561 66.4813 28.9991 66.4813 29.1903V30.9898C66.4813 31.7748 66.7281 32.4373 67.2219 32.9782C67.7156 33.5192 68.3569 33.7891 69.1459 33.7891C70.0722 33.7891 70.7932 33.4405 71.3088 32.7454C71.8256 32.0492 72.084 31.1315 72.084 29.9911Z" fill="white"/>
<path d="M87.3227 29.9033C87.3227 31.7388 86.814 33.1897 85.7954 34.2548C84.8853 35.2029 83.7537 35.6764 82.4029 35.6764C80.9448 35.6764 79.8974 35.1658 79.2607 34.1445H79.2145V39.8299H76.7552V28.1927C76.7552 27.0387 76.724 25.8544 76.6641 24.6398H78.8269L78.9642 26.3504H79.0103C79.8293 25.0615 81.074 24.4182 82.7455 24.4182C84.0501 24.4182 85.1402 24.9209 86.0146 25.9275C86.8855 26.9353 87.3227 28.2602 87.3227 29.9033ZM84.8172 29.9911C84.8172 28.9406 84.5738 28.0746 84.087 27.393C83.5552 26.6822 82.8435 26.3268 81.9472 26.3268C81.3393 26.3268 80.7891 26.5248 80.2954 26.915C79.8017 27.3087 79.4798 27.8227 79.3287 28.4592C79.2537 28.7561 79.2145 28.9991 79.2145 29.1903V30.9898C79.2145 31.7748 79.4614 32.4373 79.9528 32.9782C80.4465 33.5181 81.0879 33.7891 81.8792 33.7891C82.8055 33.7891 83.5264 33.4405 84.042 32.7454C84.5588 32.0492 84.8172 31.1315 84.8172 29.9911Z" fill="white"/>
<path d="M101.555 31.235C101.555 32.5081 101.101 33.5439 100.191 34.3436C99.1912 35.2175 97.7989 35.6539 96.0098 35.6539C94.3579 35.6539 93.0337 35.3435 92.0312 34.7215L92.6011 32.7229C93.6808 33.3595 94.8655 33.6789 96.1563 33.6789C97.0826 33.6789 97.8035 33.4742 98.3214 33.0671C98.8371 32.6599 99.0943 32.1133 99.0943 31.4318C99.0943 30.8244 98.8821 30.3127 98.4564 29.8977C98.0331 29.4827 97.3259 29.0969 96.3385 28.7404C93.6508 27.763 92.3081 26.3313 92.3081 24.4486C92.3081 23.2182 92.7787 22.2093 93.7212 21.4243C94.6601 20.6381 95.9129 20.2456 97.4794 20.2456C98.8763 20.2456 100.037 20.4829 100.963 20.9564L100.348 22.9111C99.483 22.4522 98.5049 22.2228 97.4102 22.2228C96.545 22.2228 95.869 22.4309 95.3846 22.8448C94.9751 23.2148 94.7697 23.6658 94.7697 24.2C94.7697 24.7916 95.0039 25.2808 95.4745 25.6655C95.884 26.0209 96.6281 26.4055 97.7078 26.8205C99.0286 27.339 99.9987 27.9452 100.623 28.6403C101.244 29.3331 101.555 30.2002 101.555 31.235Z" fill="white"/>
<path d="M109.687 26.4392H106.976V31.6791C106.976 33.0119 107.453 33.6777 108.411 33.6777C108.85 33.6777 109.215 33.6406 109.503 33.5664L109.571 35.3872C109.087 35.5638 108.449 35.6527 107.659 35.6527C106.687 35.6527 105.928 35.3636 105.38 34.7867C104.835 34.2086 104.56 33.2391 104.56 31.8771V26.437H102.945V24.6374H104.56V22.6614L106.976 21.9506V24.6374H109.687V26.4392Z" fill="white"/>
<path d="M121.92 29.9472C121.92 31.6061 121.433 32.9681 120.462 34.0332C119.444 35.1297 118.092 35.6763 116.406 35.6763C114.782 35.6763 113.489 35.1511 112.525 34.1006C111.56 33.0502 111.078 31.7242 111.078 30.126C111.078 28.4536 111.574 27.0837 112.57 26.0186C113.563 24.9524 114.903 24.4193 116.589 24.4193C118.213 24.4193 119.52 24.9445 120.506 25.9961C121.449 27.0162 121.92 28.3332 121.92 29.9472ZM119.369 30.0248C119.369 29.0294 119.151 28.1758 118.709 27.4638C118.193 26.6023 117.456 26.1727 116.501 26.1727C115.512 26.1727 114.761 26.6035 114.246 27.4638C113.804 28.1769 113.586 29.044 113.586 30.0698C113.586 31.0651 113.804 31.9187 114.246 32.6296C114.777 33.4911 115.52 33.9207 116.479 33.9207C117.418 33.9207 118.155 33.4821 118.687 32.6071C119.14 31.8816 119.369 31.019 119.369 30.0248Z" fill="white"/>
<path d="M129.907 26.7486C129.663 26.7047 129.404 26.6822 129.131 26.6822C128.266 26.6822 127.597 27.0005 127.127 27.6382C126.717 28.2005 126.512 28.9114 126.512 29.7695V35.4323H124.054L124.077 28.0386C124.077 26.7947 124.046 25.6621 123.984 24.6409H126.126L126.216 26.7058H126.285C126.544 25.9962 126.954 25.4248 127.514 24.9963C128.062 24.6105 128.654 24.4182 129.292 24.4182C129.519 24.4182 129.724 24.434 129.907 24.4621V26.7486Z" fill="white"/>
<path d="M140.915 29.5254C140.915 29.955 140.887 30.3172 140.825 30.613H133.447C133.476 31.6792 133.833 32.4946 134.518 33.0569C135.14 33.5597 135.944 33.8116 136.931 33.8116C138.024 33.8116 139.02 33.6418 139.916 33.301L140.302 34.9655C139.254 35.4109 138.018 35.6325 136.591 35.6325C134.874 35.6325 133.527 35.1399 132.547 34.1558C131.568 33.1717 131.078 31.8501 131.078 30.1924C131.078 28.5649 131.534 27.2097 132.446 26.1288C133.401 24.9749 134.692 24.3979 136.316 24.3979C137.912 24.3979 139.119 24.9749 139.94 26.1288C140.589 27.0455 140.915 28.1792 140.915 29.5254ZM138.57 28.9035C138.586 28.1927 138.426 27.5786 138.093 27.0601C137.667 26.3931 137.013 26.0602 136.133 26.0602C135.329 26.0602 134.675 26.3853 134.175 27.0376C133.766 27.5561 133.522 28.178 133.447 28.9023H138.57V28.9035Z" fill="white"/>
<path d="M56.5741 11.2571C56.5741 12.5809 56.1669 13.5773 55.3536 14.2465C54.6004 14.864 53.5299 15.1733 52.1434 15.1733C51.4559 15.1733 50.8676 15.144 50.375 15.0856V7.85266C51.0175 7.75144 51.7096 7.69971 52.4571 7.69971C53.7779 7.69971 54.7734 7.97975 55.4448 8.53985C56.1969 9.17305 56.5741 10.0784 56.5741 11.2571ZM55.2994 11.2897C55.2994 10.4316 55.0664 9.77364 54.6004 9.31476C54.1344 8.85701 53.4538 8.62758 52.5575 8.62758C52.1768 8.62758 51.8527 8.65232 51.5839 8.70406V14.2027C51.7327 14.2252 52.0049 14.2353 52.4006 14.2353C53.3257 14.2353 54.0398 13.9845 54.5427 13.4829C55.0456 12.9813 55.2994 12.2502 55.2994 11.2897Z" fill="white"/>
<path d="M63.3337 12.4132C63.3337 13.2286 63.0949 13.8967 62.6173 14.4208C62.1167 14.9595 61.4534 15.2283 60.6252 15.2283C59.8269 15.2283 59.1913 14.9708 58.7172 14.4534C58.2443 13.9372 58.0078 13.286 58.0078 12.501C58.0078 11.6799 58.2512 11.0063 58.7403 10.4833C59.2294 9.96029 59.8869 9.69824 60.7151 9.69824C61.5134 9.69824 62.1548 9.9558 62.6404 10.472C63.1018 10.9736 63.3337 11.6215 63.3337 12.4132ZM62.0798 12.4515C62.0798 11.9622 61.9713 11.5427 61.7556 11.193C61.5019 10.7701 61.1408 10.5586 60.6713 10.5586C60.1857 10.5586 59.8165 10.7701 59.5628 11.193C59.3459 11.5427 59.2386 11.969 59.2386 12.4729C59.2386 12.9621 59.3471 13.3816 59.5628 13.7314C59.8246 14.1543 60.1891 14.3657 60.6598 14.3657C61.1212 14.3657 61.4834 14.1509 61.7441 13.7201C61.9679 13.3636 62.0798 12.9407 62.0798 12.4515Z" fill="white"/>
<path d="M72.3942 9.8064L70.6928 15.1082H69.5854L68.8806 12.8059C68.7018 12.2312 68.5564 11.6599 68.4434 11.093H68.4215C68.3165 11.6756 68.1712 12.2459 67.9843 12.8059L67.2356 15.1082H66.1156L64.5156 9.8064H65.758L66.3728 12.3268C66.5216 12.9229 66.6439 13.4909 66.7419 14.0285H66.7638C66.8538 13.5854 67.0026 13.0208 67.2126 12.3381L67.9843 9.80752H68.9694L69.7088 12.2841C69.8876 12.888 70.0329 13.4695 70.1448 14.0296H70.1783C70.2602 13.4841 70.3836 12.9027 70.5474 12.2841L71.2072 9.80752H72.3942V9.8064Z" fill="white"/>
<path d="M78.6648 15.108H77.4559V12.0713C77.4559 11.1356 77.0914 10.6677 76.3601 10.6677C76.0013 10.6677 75.7118 10.7959 75.4868 11.0535C75.2642 11.311 75.1512 11.6147 75.1512 11.9622V15.1068H73.9423V11.3211C73.9423 10.8555 73.9273 10.3505 73.8984 9.80392H74.9608L75.0174 10.6328H75.0508C75.1915 10.3753 75.4015 10.1627 75.6772 9.99287C76.0048 9.79492 76.3716 9.69482 76.773 9.69482C77.2806 9.69482 77.7028 9.85453 78.0384 10.1751C78.456 10.5676 78.6648 11.1535 78.6648 11.9318V15.108Z" fill="white"/>
<path d="M81.9968 15.108H80.7891V7.37354H81.9968V15.108Z" fill="white"/>
<path d="M89.1071 12.4132C89.1071 13.2286 88.8683 13.8967 88.3908 14.4208C87.8901 14.9595 87.2257 15.2283 86.3986 15.2283C85.5992 15.2283 84.9636 14.9708 84.4907 14.4534C84.0177 13.9372 83.7812 13.286 83.7812 12.501C83.7812 11.6799 84.0246 11.0063 84.5137 10.4833C85.0028 9.96029 85.6603 9.69824 86.4874 9.69824C87.2868 9.69824 87.927 9.9558 88.4138 10.472C88.8752 10.9736 89.1071 11.6215 89.1071 12.4132ZM87.8521 12.4515C87.8521 11.9622 87.7436 11.5427 87.5279 11.193C87.2753 10.7701 86.9131 10.5586 86.4447 10.5586C85.958 10.5586 85.5888 10.7701 85.3362 11.193C85.1193 11.5427 85.0121 11.969 85.0121 12.4729C85.0121 12.9621 85.1205 13.3816 85.3362 13.7314C85.5981 14.1543 85.9626 14.3657 86.4332 14.3657C86.8946 14.3657 87.2557 14.1509 87.5164 13.7201C87.7413 13.3636 87.8521 12.9407 87.8521 12.4515Z" fill="white"/>
<path d="M94.9642 15.108H93.8787L93.7887 14.4973H93.7553C93.3838 14.9843 92.8543 15.2283 92.1668 15.2283C91.6535 15.2283 91.2383 15.0675 90.9257 14.7481C90.6419 14.4579 90.5 14.0969 90.5 13.6684C90.5 13.0206 90.7768 12.5268 91.334 12.1849C91.89 11.843 92.6721 11.6754 93.6791 11.6833V11.5843C93.6791 10.8859 93.3031 10.5373 92.5498 10.5373C92.0134 10.5373 91.5405 10.6689 91.1321 10.9298L90.8864 10.156C91.3917 9.8512 92.0157 9.69824 92.7517 9.69824C94.1728 9.69824 94.8857 10.4293 94.8857 11.8914V13.8439C94.8857 14.3736 94.9122 14.7953 94.9642 15.108ZM93.7091 13.286V12.4684C92.3756 12.4459 91.7089 12.8024 91.7089 13.5368C91.7089 13.8135 91.785 14.0204 91.9408 14.1588C92.0965 14.2971 92.2949 14.3657 92.5314 14.3657C92.7967 14.3657 93.0447 14.2836 93.2708 14.1205C93.498 13.9563 93.6376 13.7483 93.6895 13.4929C93.7022 13.4356 93.7091 13.3659 93.7091 13.286Z" fill="white"/>
<path d="M101.831 15.108H100.759L100.702 14.2566H100.669C100.326 14.9045 99.7425 15.2284 98.9223 15.2284C98.2671 15.2284 97.7215 14.9776 97.2889 14.476C96.8563 13.9743 96.6406 13.3231 96.6406 12.5235C96.6406 11.6654 96.8748 10.9703 97.3454 10.4394C97.8011 9.94458 98.3594 9.69715 99.0238 9.69715C99.754 9.69715 100.265 9.93671 100.556 10.4169H100.579V7.37354H101.789V13.6797C101.789 14.1959 101.803 14.6717 101.831 15.108ZM100.579 12.8721V11.9881C100.579 11.8352 100.567 11.7115 100.545 11.617C100.477 11.3336 100.331 11.0951 100.108 10.9028C99.8832 10.7105 99.6121 10.6138 99.2995 10.6138C98.8485 10.6138 98.4955 10.7881 98.2359 11.1379C97.9787 11.4877 97.8484 11.9342 97.8484 12.4796C97.8484 13.0037 97.9718 13.4289 98.2198 13.7562C98.4816 14.1048 98.8346 14.2791 99.2764 14.2791C99.6732 14.2791 99.9905 14.134 100.232 13.8428C100.465 13.574 100.579 13.25 100.579 12.8721Z" fill="white"/>
<path d="M112.17 12.4132C112.17 13.2286 111.931 13.8967 111.453 14.4208C110.953 14.9595 110.29 15.2283 109.461 15.2283C108.664 15.2283 108.028 14.9708 107.553 14.4534C107.08 13.9372 106.844 13.286 106.844 12.501C106.844 11.6799 107.087 11.0063 107.576 10.4833C108.065 9.96029 108.723 9.69824 109.552 9.69824C110.349 9.69824 110.992 9.9558 111.476 10.472C111.938 10.9736 112.17 11.6215 112.17 12.4132ZM110.917 12.4515C110.917 11.9622 110.808 11.5427 110.593 11.193C110.338 10.7701 109.978 10.5586 109.507 10.5586C109.023 10.5586 108.654 10.7701 108.399 11.193C108.182 11.5427 108.075 11.969 108.075 12.4729C108.075 12.9621 108.183 13.3816 108.399 13.7314C108.661 14.1543 109.025 14.3657 109.496 14.3657C109.957 14.3657 110.32 14.1509 110.581 13.7201C110.804 13.3636 110.917 12.9407 110.917 12.4515Z" fill="white"/>
<path d="M118.671 15.108H117.464V12.0713C117.464 11.1356 117.099 10.6677 116.367 10.6677C116.008 10.6677 115.718 10.7959 115.495 11.0535C115.271 11.311 115.159 11.6147 115.159 11.9622V15.1068H113.949V11.3211C113.949 10.8555 113.935 10.3505 113.906 9.80392H114.967L115.024 10.6328H115.057C115.199 10.3753 115.409 10.1627 115.684 9.99287C116.013 9.79492 116.378 9.69482 116.781 9.69482C117.287 9.69482 117.709 9.85453 118.045 10.1751C118.464 10.5676 118.671 11.1535 118.671 11.9318V15.108Z" fill="white"/>
<path d="M126.804 10.6891H125.473V13.2646C125.473 13.9192 125.709 14.2465 126.178 14.2465C126.394 14.2465 126.574 14.2285 126.716 14.1914L126.747 15.0855C126.509 15.1732 126.195 15.2171 125.808 15.2171C125.331 15.2171 124.959 15.0754 124.691 14.792C124.421 14.5086 124.287 14.0317 124.287 13.3625V10.6891H123.492V9.80623H124.287V8.83449L125.472 8.48584V9.8051H126.803V10.6891H126.804Z" fill="white"/>
<path d="M133.207 15.108H131.997V12.0939C131.997 11.1435 131.632 10.6678 130.902 10.6678C130.342 10.6678 129.959 10.9433 129.749 11.4944C129.713 11.6102 129.692 11.752 129.692 11.9184V15.1069H128.484V7.37354H129.692V10.5688H129.715C130.096 9.98732 130.641 9.69715 131.349 9.69715C131.849 9.69715 132.263 9.85685 132.592 10.1774C133.002 10.5767 133.207 11.1705 133.207 11.9555V15.108Z" fill="white"/>
<path d="M139.811 12.2063C139.811 12.4177 139.795 12.5954 139.766 12.7405H136.14C136.157 13.2646 136.33 13.6639 136.665 13.9406C136.972 14.188 137.368 14.3117 137.852 14.3117C138.389 14.3117 138.878 14.2285 139.318 14.0609L139.508 14.8797C138.992 15.0979 138.385 15.207 137.683 15.207C136.841 15.207 136.177 14.9652 135.698 14.4815C135.215 13.9979 134.977 13.349 134.977 12.5347C134.977 11.735 135.199 11.0692 135.648 10.5384C136.116 9.97153 136.75 9.68811 137.549 9.68811C138.331 9.68811 138.925 9.97153 139.327 10.5384C139.651 10.9883 139.811 11.545 139.811 12.2063ZM138.657 11.9015C138.667 11.5517 138.587 11.2503 138.423 10.9961C138.213 10.6688 137.894 10.5046 137.461 10.5046C137.067 10.5046 136.745 10.6643 136.499 10.9849C136.299 11.2402 136.18 11.545 136.14 11.9015H138.657Z" fill="white"/>
</svg>
