<svg version="1.1" xmlns="http://www.w3.org/2000/svg" xmlns:xlink="http://www.w3.org/1999/xlink" x="0px"
	 y="0px" width="595.281px" height="396.85px" viewBox="0 0 595.281 396.85" enable-background="new 0 0 595.281 396.85"
	 xml:space="preserve">
<path id="door" fill="#ffffff" d="M410.285,61.06L286.269,50.725c-6.76-0.525-12.668,4.523-13.202,11.283h-0.229v260.433h0.229
	c0.534,6.759,6.442,11.808,13.202,11.281l124.016-10.334c6.428-0.536,11.371-5.909,11.371-12.359V73.419
	C421.656,66.969,416.712,61.596,410.285,61.06z M310.042,210.826c-6.849,0-12.401-5.552-12.401-12.401s5.553-12.401,12.401-12.401
	c6.85,0,12.401,5.552,12.401,12.401S316.891,210.826,310.042,210.826z M198.428,62.008h49.606v24.803h-49.606v210.827h49.606v24.803
	h-49.606c-13.691-0.018-24.786-11.112-24.803-24.803V86.811C173.642,73.12,184.737,62.026,198.428,62.008z"/>
</svg>
